<?xml version="1.0" encoding="UTF-8" standalone="no"?>
<!DOCTYPE svg PUBLIC "-//W3C//DTD SVG 1.1//EN"
 "http://www.w3.org/Graphics/SVG/1.1/DTD/svg11.dtd">
<!-- Generated by graphviz version 8.0.5 (20230430.1635)
 -->
<!-- Pages: 1 -->
<svg width="1301pt" height="1076pt"
 viewBox="0.00 0.00 1301.34 1075.79" xmlns="http://www.w3.org/2000/svg" xmlns:xlink="http://www.w3.org/1999/xlink">
<g id="graph0" class="graph" transform="scale(1 1) rotate(0) translate(36 1039.79)">
<polygon fill="white" stroke="none" points="-36,36 -36,-1039.79 1265.34,-1039.79 1265.34,36 -36,36"/>
<!-- Quoridor -->
<g id="node1" class="node">
<title>Quoridor</title>
<ellipse fill="none" stroke="red" cx="628.49" cy="-413.84" rx="59.79" ry="59.79"/>
<text text-anchor="middle" x="628.49" y="-404.54" font-family="Times,serif" font-size="24.00">Quoridor</text>
</g>
<!-- multi -->
<g id="node2" class="node">
<title>multi</title>
<polygon fill="none" stroke="black" points="603.2,-294.1 531.2,-294.1 531.2,-222.1 603.2,-222.1 603.2,-294.1"/>
<text text-anchor="middle" x="567.2" y="-251.5" font-family="Times,serif" font-size="18.00">multi</text>
</g>
<!-- Quoridor&#45;&#45;multi -->
<g id="edge1" class="edge">
<title>Quoridor&#45;&#45;multi</title>
<path fill="none" stroke="black" d="M606.53,-358.06C598.22,-336.93 588.98,-313.45 581.54,-294.55"/>
</g>
<!-- gameLogic -->
<g id="node7" class="node">
<title>gameLogic</title>
<polygon fill="none" stroke="black" points="820.15,-242.23 721.65,-242.23 721.65,-170.23 820.15,-170.23 820.15,-242.23"/>
<text text-anchor="middle" x="770.9" y="-199.63" font-family="Times,serif" font-size="18.00">gameLogic</text>
</g>
<!-- Quoridor&#45;&#45;gameLogic -->
<g id="edge6" class="edge">
<title>Quoridor&#45;&#45;gameLogic</title>
<path fill="none" stroke="black" d="M662.42,-364.38C688.09,-326.96 722.75,-276.42 745.92,-242.64"/>
</g>
<!-- main.py -->
<g id="node13" class="node">
<title>main.py</title>
<ellipse fill="none" stroke="black" cx="732.32" cy="-334.18" rx="36" ry="18"/>
<text text-anchor="middle" x="732.32" y="-329.91" font-family="Times,serif" font-size="12.00">main.py</text>
</g>
<!-- Quoridor&#45;&#45;main.py -->
<g id="edge12" class="edge">
<title>Quoridor&#45;&#45;main.py</title>
<path fill="none" stroke="black" d="M676.15,-377.28C688.95,-367.46 702.09,-357.38 712.44,-349.44"/>
</g>
<!-- assets -->
<g id="node14" class="node">
<title>assets</title>
<polygon fill="none" stroke="black" points="467.21,-431.6 395.21,-431.6 395.21,-359.6 467.21,-359.6 467.21,-431.6"/>
<text text-anchor="middle" x="431.21" y="-389" font-family="Times,serif" font-size="18.00">assets</text>
</g>
<!-- Quoridor&#45;&#45;assets -->
<g id="edge13" class="edge">
<title>Quoridor&#45;&#45;assets</title>
<path fill="none" stroke="black" d="M568.5,-408.29C535.51,-405.25 495.67,-401.56 467.43,-398.95"/>
</g>
<!-- graphical -->
<g id="node22" class="node">
<title>graphical</title>
<polygon fill="none" stroke="black" points="835.9,-611.37 751.65,-611.37 751.65,-539.37 835.9,-539.37 835.9,-611.37"/>
<text text-anchor="middle" x="793.78" y="-568.77" font-family="Times,serif" font-size="18.00">graphical</text>
</g>
<!-- Quoridor&#45;&#45;graphical -->
<g id="edge21" class="edge">
<title>Quoridor&#45;&#45;graphical</title>
<path fill="none" stroke="black" d="M671.48,-455.86C697.88,-481.66 731.36,-514.37 756.61,-539.05"/>
</g>
<!-- multiplayerServer.py -->
<g id="node3" class="node">
<title>multiplayerServer.py</title>
<ellipse fill="none" stroke="black" cx="521.11" cy="-58.2" rx="73.14" ry="18"/>
<text text-anchor="middle" x="521.11" y="-53.93" font-family="Times,serif" font-size="12.00">multiplayerServer.py</text>
</g>
<!-- multi&#45;&#45;multiplayerServer.py -->
<g id="edge2" class="edge">
<title>multi&#45;&#45;multiplayerServer.py</title>
<path fill="none" stroke="black" d="M558.85,-221.9C548.97,-179.04 532.89,-109.32 525.32,-76.45"/>
</g>
<!-- multiplayerClient.py -->
<g id="node4" class="node">
<title>multiplayerClient.py</title>
<ellipse fill="none" stroke="black" cx="411.67" cy="-234.37" rx="71.71" ry="18"/>
<text text-anchor="middle" x="411.67" y="-230.09" font-family="Times,serif" font-size="12.00">multiplayerClient.py</text>
</g>
<!-- multi&#45;&#45;multiplayerClient.py -->
<g id="edge3" class="edge">
<title>multi&#45;&#45;multiplayerClient.py</title>
<path fill="none" stroke="black" d="M530.73,-252.54C513.67,-249.94 492.88,-246.76 473.47,-243.8"/>
</g>
<!-- threadClient.py -->
<g id="node5" class="node">
<title>threadClient.py</title>
<ellipse fill="none" stroke="black" cx="616.12" cy="-102.22" rx="56.45" ry="18"/>
<text text-anchor="middle" x="616.12" y="-97.95" font-family="Times,serif" font-size="12.00">threadClient.py</text>
</g>
<!-- multi&#45;&#45;threadClient.py -->
<g id="edge4" class="edge">
<title>multi&#45;&#45;threadClient.py</title>
<path fill="none" stroke="black" d="M578.54,-221.95C588.54,-190.11 602.67,-145.06 610.45,-120.29"/>
</g>
<!-- discoveryServer.py -->
<g id="node6" class="node">
<title>discoveryServer.py</title>
<ellipse fill="none" stroke="black" cx="447.05" cy="-124.24" rx="68.37" ry="18"/>
<text text-anchor="middle" x="447.05" y="-119.97" font-family="Times,serif" font-size="12.00">discoveryServer.py</text>
</g>
<!-- multi&#45;&#45;discoveryServer.py -->
<g id="edge5" class="edge">
<title>multi&#45;&#45;discoveryServer.py</title>
<path fill="none" stroke="black" d="M534.68,-221.88C511.47,-196.02 481.25,-162.35 463.05,-142.06"/>
</g>
<!-- game.py -->
<g id="node8" class="node">
<title>game.py</title>
<ellipse fill="none" stroke="black" cx="936.31" cy="-161.99" rx="36" ry="18"/>
<text text-anchor="middle" x="936.31" y="-157.71" font-family="Times,serif" font-size="12.00">game.py</text>
</g>
<!-- gameLogic&#45;&#45;game.py -->
<g id="edge7" class="edge">
<title>gameLogic&#45;&#45;game.py</title>
<path fill="none" stroke="black" d="M820.53,-192.96C847.65,-185.7 880.45,-176.93 904.2,-170.57"/>
</g>
<!-- cell.py -->
<g id="node9" class="node">
<title>cell.py</title>
<ellipse fill="none" stroke="black" cx="765.34" cy="-18" rx="36" ry="18"/>
<text text-anchor="middle" x="765.34" y="-13.72" font-family="Times,serif" font-size="12.00">cell.py</text>
</g>
<!-- gameLogic&#45;&#45;cell.py -->
<g id="edge8" class="edge">
<title>gameLogic&#45;&#45;cell.py</title>
<path fill="none" stroke="black" d="M769.83,-169.94C768.65,-129.98 766.8,-67.33 765.88,-36.46"/>
</g>
<!-- localGame.py -->
<g id="node10" class="node">
<title>localGame.py</title>
<ellipse fill="none" stroke="black" cx="919.19" cy="-85.95" rx="52.15" ry="18"/>
<text text-anchor="middle" x="919.19" y="-81.67" font-family="Times,serif" font-size="12.00">localGame.py</text>
</g>
<!-- gameLogic&#45;&#45;localGame.py -->
<g id="edge9" class="edge">
<title>gameLogic&#45;&#45;localGame.py</title>
<path fill="none" stroke="black" d="M815.79,-169.82C843.24,-147.55 877.06,-120.12 898.38,-102.83"/>
</g>
<!-- bot.py -->
<g id="node11" class="node">
<title>bot.py</title>
<ellipse fill="none" stroke="black" cx="845.37" cy="-41.91" rx="36" ry="18"/>
<text text-anchor="middle" x="845.37" y="-37.63" font-family="Times,serif" font-size="12.00">bot.py</text>
</g>
<!-- gameLogic&#45;&#45;bot.py -->
<g id="edge10" class="edge">
<title>gameLogic&#45;&#45;bot.py</title>
<path fill="none" stroke="black" d="M787.43,-169.76C802.94,-135.53 825.48,-85.79 837.36,-59.58"/>
</g>
<!-- player.py -->
<g id="node12" class="node">
<title>player.py</title>
<ellipse fill="none" stroke="black" cx="682.98" cy="-50.49" rx="38.32" ry="18"/>
<text text-anchor="middle" x="682.98" y="-46.21" font-family="Times,serif" font-size="12.00">player.py</text>
</g>
<!-- gameLogic&#45;&#45;player.py -->
<g id="edge11" class="edge">
<title>gameLogic&#45;&#45;player.py</title>
<path fill="none" stroke="black" d="M750.51,-170.11C732.45,-138.12 706.85,-92.78 692.93,-68.13"/>
</g>
<!-- pictures -->
<g id="node15" class="node">
<title>pictures</title>
<polygon fill="none" stroke="black" points="308.93,-301.09 235.18,-301.09 235.18,-229.09 308.93,-229.09 308.93,-301.09"/>
<text text-anchor="middle" x="272.05" y="-258.49" font-family="Times,serif" font-size="18.00">pictures</text>
</g>
<!-- assets&#45;&#45;pictures -->
<g id="edge14" class="edge">
<title>assets&#45;&#45;pictures</title>
<path fill="none" stroke="black" d="M395.1,-365.99C369.51,-345.01 335.27,-316.93 309.41,-295.73"/>
</g>
<!-- sounds -->
<g id="node19" class="node">
<title>sounds</title>
<polygon fill="none" stroke="black" points="291.27,-510.19 219.27,-510.19 219.27,-438.19 291.27,-438.19 291.27,-510.19"/>
<text text-anchor="middle" x="255.27" y="-467.59" font-family="Times,serif" font-size="18.00">sounds</text>
</g>
<!-- assets&#45;&#45;sounds -->
<g id="edge18" class="edge">
<title>assets&#45;&#45;sounds</title>
<path fill="none" stroke="black" d="M394.76,-411.89C364.56,-425.37 321.86,-444.45 291.68,-457.93"/>
</g>
<!-- rules.png -->
<g id="node16" class="node">
<title>rules.png</title>
<ellipse fill="none" stroke="black" cx="131.19" cy="-163.16" rx="37.84" ry="18"/>
<text text-anchor="middle" x="131.19" y="-158.89" font-family="Times,serif" font-size="12.00">rules.png</text>
</g>
<!-- pictures&#45;&#45;rules.png -->
<g id="edge15" class="edge">
<title>pictures&#45;&#45;rules.png</title>
<path fill="none" stroke="black" d="M235.04,-238.31C208.63,-219.2 174.06,-194.18 152.23,-178.39"/>
</g>
<!-- rulesPicture.jpg -->
<g id="node17" class="node">
<title>rulesPicture.jpg</title>
<ellipse fill="none" stroke="black" cx="220.54" cy="-78.05" rx="56.92" ry="18"/>
<text text-anchor="middle" x="220.54" y="-73.77" font-family="Times,serif" font-size="12.00">rulesPicture.jpg</text>
</g>
<!-- pictures&#45;&#45;rulesPicture.jpg -->
<g id="edge16" class="edge">
<title>pictures&#45;&#45;rulesPicture.jpg</title>
<path fill="none" stroke="black" d="M262.12,-229.03C251.19,-189.33 234.04,-127.07 225.59,-96.39"/>
</g>
<!-- manual -->
<g id="node18" class="node">
<title>manual</title>
<polygon fill="none" stroke="black" points="130.1,-322.07 58.1,-322.07 58.1,-250.07 130.1,-250.07 130.1,-322.07"/>
<text text-anchor="middle" x="94.1" y="-279.47" font-family="Times,serif" font-size="18.00">manual</text>
</g>
<!-- pictures&#45;&#45;manual -->
<g id="edge17" class="edge">
<title>pictures&#45;&#45;manual</title>
<path fill="none" stroke="black" d="M234.75,-269.49C204.07,-273.11 160.85,-278.2 130.44,-281.79"/>
</g>
<!-- movement.wav -->
<g id="node20" class="node">
<title>movement.wav</title>
<ellipse fill="none" stroke="black" cx="105.11" cy="-582.31" rx="56.45" ry="18"/>
<text text-anchor="middle" x="105.11" y="-578.03" font-family="Times,serif" font-size="12.00">movement.wav</text>
</g>
<!-- sounds&#45;&#45;movement.wav -->
<g id="edge19" class="edge">
<title>sounds&#45;&#45;movement.wav</title>
<path fill="none" stroke="black" d="M218.92,-500.36C190.8,-520.61 152.7,-548.05 128.5,-565.46"/>
</g>
<!-- barrierPlacement.wav -->
<g id="node21" class="node">
<title>barrierPlacement.wav</title>
<ellipse fill="none" stroke="black" cx="75.53" cy="-457.15" rx="75.53" ry="18"/>
<text text-anchor="middle" x="75.53" y="-452.88" font-family="Times,serif" font-size="12.00">barrierPlacement.wav</text>
</g>
<!-- sounds&#45;&#45;barrierPlacement.wav -->
<g id="edge20" class="edge">
<title>sounds&#45;&#45;barrierPlacement.wav</title>
<path fill="none" stroke="black" d="M218.9,-470.74C197.97,-468.76 170.96,-466.2 146.03,-463.84"/>
</g>
<!-- barriers -->
<g id="node23" class="node">
<title>barriers</title>
<polygon fill="none" stroke="black" points="997.37,-722.94 925.37,-722.94 925.37,-650.94 997.37,-650.94 997.37,-722.94"/>
<text text-anchor="middle" x="961.37" y="-680.34" font-family="Times,serif" font-size="18.00">barriers</text>
</g>
<!-- graphical&#45;&#45;barriers -->
<g id="edge22" class="edge">
<title>graphical&#45;&#45;barriers</title>
<path fill="none" stroke="black" d="M836.07,-603.52C863.51,-621.79 898.9,-645.35 925.06,-662.77"/>
</g>
<!-- menus -->
<g id="node28" class="node">
<title>menus</title>
<polygon fill="none" stroke="black" points="722.7,-815.27 650.7,-815.27 650.7,-743.27 722.7,-743.27 722.7,-815.27"/>
<text text-anchor="middle" x="686.7" y="-772.67" font-family="Times,serif" font-size="18.00">menus</text>
</g>
<!-- graphical&#45;&#45;menus -->
<g id="edge27" class="edge">
<title>graphical&#45;&#45;menus</title>
<path fill="none" stroke="black" d="M774.63,-611.82C755.2,-648.82 725.29,-705.78 705.86,-742.79"/>
</g>
<!-- widgets -->
<g id="node43" class="node">
<title>widgets</title>
<polygon fill="none" stroke="black" points="1002.39,-539.59 930.14,-539.59 930.14,-467.59 1002.39,-467.59 1002.39,-539.59"/>
<text text-anchor="middle" x="966.27" y="-496.99" font-family="Times,serif" font-size="18.00">widgets</text>
</g>
<!-- graphical&#45;&#45;widgets -->
<g id="edge42" class="edge">
<title>graphical&#45;&#45;widgets</title>
<path fill="none" stroke="black" d="M835.97,-557.81C864.7,-545.86 902.33,-530.2 929.77,-518.78"/>
</g>
<!-- verticalBarrier.py -->
<g id="node24" class="node">
<title>verticalBarrier.py</title>
<ellipse fill="none" stroke="black" cx="1094.37" cy="-827.63" rx="62.65" ry="18"/>
<text text-anchor="middle" x="1094.37" y="-823.36" font-family="Times,serif" font-size="12.00">verticalBarrier.py</text>
</g>
<!-- barriers&#45;&#45;verticalBarrier.py -->
<g id="edge23" class="edge">
<title>barriers&#45;&#45;verticalBarrier.py</title>
<path fill="none" stroke="black" d="M995.62,-723.17C1021.94,-751.02 1057.16,-788.27 1077.64,-809.94"/>
</g>
<!-- barrier.py -->
<g id="node25" class="node">
<title>barrier.py</title>
<ellipse fill="none" stroke="black" cx="1033.78" cy="-873.6" rx="39.27" ry="18"/>
<text text-anchor="middle" x="1033.78" y="-869.33" font-family="Times,serif" font-size="12.00">barrier.py</text>
</g>
<!-- barriers&#45;&#45;barrier.py -->
<g id="edge24" class="edge">
<title>barriers&#45;&#45;barrier.py</title>
<path fill="none" stroke="black" d="M975.5,-723.38C990.98,-763.27 1015.15,-825.59 1026.9,-855.88"/>
</g>
<!-- intersection.py -->
<g id="node26" class="node">
<title>intersection.py</title>
<ellipse fill="none" stroke="black" cx="1138.27" cy="-674.74" rx="54.06" ry="18"/>
<text text-anchor="middle" x="1138.27" y="-670.47" font-family="Times,serif" font-size="12.00">intersection.py</text>
</g>
<!-- barriers&#45;&#45;intersection.py -->
<g id="edge25" class="edge">
<title>barriers&#45;&#45;intersection.py</title>
<path fill="none" stroke="black" d="M997.59,-684.45C1022.76,-682.71 1056.72,-680.37 1084.97,-678.42"/>
</g>
<!-- horizontalBarrier.py -->
<g id="node27" class="node">
<title>horizontalBarrier.py</title>
<ellipse fill="none" stroke="black" cx="1141.72" cy="-758.15" rx="70.76" ry="18"/>
<text text-anchor="middle" x="1141.72" y="-753.87" font-family="Times,serif" font-size="12.00">horizontalBarrier.py</text>
</g>
<!-- barriers&#45;&#45;horizontalBarrier.py -->
<g id="edge26" class="edge">
<title>barriers&#45;&#45;horizontalBarrier.py</title>
<path fill="none" stroke="black" d="M997.87,-701.35C1028.33,-713.38 1071.65,-730.48 1102.78,-742.77"/>
</g>
<!-- choiceHost.py -->
<g id="node29" class="node">
<title>choiceHost.py</title>
<ellipse fill="none" stroke="black" cx="591.13" cy="-677.18" rx="53.58" ry="18"/>
<text text-anchor="middle" x="591.13" y="-672.91" font-family="Times,serif" font-size="12.00">choiceHost.py</text>
</g>
<!-- menus&#45;&#45;choiceHost.py -->
<g id="edge28" class="edge">
<title>menus&#45;&#45;choiceHost.py</title>
<path fill="none" stroke="black" d="M652.74,-742.99C637.39,-726.6 619.97,-707.99 607.58,-694.75"/>
</g>
<!-- choiceBot.py -->
<g id="node30" class="node">
<title>choiceBot.py</title>
<ellipse fill="none" stroke="black" cx="808.71" cy="-761.82" rx="50.25" ry="18"/>
<text text-anchor="middle" x="808.71" y="-757.55" font-family="Times,serif" font-size="12.00">choiceBot.py</text>
</g>
<!-- menus&#45;&#45;choiceBot.py -->
<g id="edge29" class="edge">
<title>menus&#45;&#45;choiceBot.py</title>
<path fill="none" stroke="black" d="M722.98,-774.08C735.06,-772.35 748.7,-770.4 761.48,-768.57"/>
</g>
<!-- board.py -->
<g id="node31" class="node">
<title>board.py</title>
<ellipse fill="none" stroke="black" cx="697.59" cy="-985.79" rx="36.89" ry="18"/>
<text text-anchor="middle" x="697.59" y="-981.51" font-family="Times,serif" font-size="12.00">board.py</text>
</g>
<!-- menus&#45;&#45;board.py -->
<g id="edge30" class="edge">
<title>menus&#45;&#45;board.py</title>
<path fill="none" stroke="black" d="M674.39,-815.51C667.63,-839.39 661.12,-871.43 663.83,-900.13 666.18,-924.96 678.2,-951.34 687.23,-968.15"/>
</g>
<!-- choiceServer.py -->
<g id="node32" class="node">
<title>choiceServer.py</title>
<ellipse fill="none" stroke="black" cx="836.44" cy="-839.55" rx="58.83" ry="18"/>
<text text-anchor="middle" x="836.44" y="-835.28" font-family="Times,serif" font-size="12.00">choiceServer.py</text>
</g>
<!-- menus&#45;&#45;choiceServer.py -->
<g id="edge31" class="edge">
<title>menus&#45;&#45;choiceServer.py</title>
<path fill="none" stroke="black" d="M722.95,-793.86C746.4,-803.3 776.82,-815.55 800.27,-824.99"/>
</g>
<!-- selectServerName.py -->
<g id="node33" class="node">
<title>selectServerName.py</title>
<ellipse fill="none" stroke="black" cx="518.24" cy="-721.19" rx="74.1" ry="18"/>
<text text-anchor="middle" x="518.24" y="-716.91" font-family="Times,serif" font-size="12.00">selectServerName.py</text>
</g>
<!-- menus&#45;&#45;selectServerName.py -->
<g id="edge32" class="edge">
<title>menus&#45;&#45;selectServerName.py</title>
<path fill="none" stroke="black" d="M650.56,-766.81C624.55,-757.84 589.35,-745.7 561.79,-736.2"/>
</g>
<!-- rules.py -->
<g id="node34" class="node">
<title>rules.py</title>
<ellipse fill="none" stroke="black" cx="567.52" cy="-847.9" rx="36" ry="18"/>
<text text-anchor="middle" x="567.52" y="-843.63" font-family="Times,serif" font-size="12.00">rules.py</text>
</g>
<!-- menus&#45;&#45;rules.py -->
<g id="edge33" class="edge">
<title>menus&#45;&#45;rules.py</title>
<path fill="none" stroke="black" d="M650.29,-800.23C631.12,-811.27 608.17,-824.49 591.29,-834.21"/>
</g>
<!-- sizeGrid.py -->
<g id="node35" class="node">
<title>sizeGrid.py</title>
<ellipse fill="none" stroke="black" cx="838.93" cy="-911.55" rx="45" ry="18"/>
<text text-anchor="middle" x="838.93" y="-907.27" font-family="Times,serif" font-size="12.00">sizeGrid.py</text>
</g>
<!-- menus&#45;&#45;sizeGrid.py -->
<g id="edge34" class="edge">
<title>menus&#45;&#45;sizeGrid.py</title>
<path fill="none" stroke="black" d="M723.16,-810.95C753.6,-837.4 795.77,-874.04 819.91,-895.02"/>
</g>
<!-- type.py -->
<g id="node36" class="node">
<title>type.py</title>
<ellipse fill="none" stroke="black" cx="688.77" cy="-678.31" rx="36" ry="18"/>
<text text-anchor="middle" x="688.77" y="-674.03" font-family="Times,serif" font-size="12.00">type.py</text>
</g>
<!-- menus&#45;&#45;type.py -->
<g id="edge35" class="edge">
<title>menus&#45;&#45;type.py</title>
<path fill="none" stroke="black" d="M687.45,-742.82C687.77,-727.12 688.13,-709.45 688.39,-696.58"/>
</g>
<!-- endGame.py -->
<g id="node37" class="node">
<title>endGame.py</title>
<ellipse fill="none" stroke="black" cx="714.25" cy="-900.18" rx="48.81" ry="18"/>
<text text-anchor="middle" x="714.25" y="-895.91" font-family="Times,serif" font-size="12.00">endGame.py</text>
</g>
<!-- menus&#45;&#45;endGame.py -->
<g id="edge36" class="edge">
<title>menus&#45;&#45;endGame.py</title>
<path fill="none" stroke="black" d="M694.96,-815.55C699.94,-837.39 706.07,-864.27 710.06,-881.8"/>
</g>
<!-- tablePlayer.py -->
<g id="node38" class="node">
<title>tablePlayer.py</title>
<ellipse fill="none" stroke="black" cx="795.67" cy="-963.83" rx="53.11" ry="18"/>
<text text-anchor="middle" x="795.67" y="-959.55" font-family="Times,serif" font-size="12.00">tablePlayer.py</text>
</g>
<!-- menus&#45;&#45;tablePlayer.py -->
<g id="edge37" class="edge">
<title>menus&#45;&#45;tablePlayer.py</title>
<path fill="none" stroke="black" d="M711.74,-815.63C727.64,-839.29 748.23,-871.07 764.66,-900.23 773.1,-915.22 781.59,-932.83 787.54,-945.72"/>
</g>
<!-- choicePlayer.py -->
<g id="node39" class="node">
<title>choicePlayer.py</title>
<ellipse fill="none" stroke="black" cx="465.12" cy="-845.15" rx="58.36" ry="18"/>
<text text-anchor="middle" x="465.12" y="-840.87" font-family="Times,serif" font-size="12.00">choicePlayer.py</text>
</g>
<!-- menus&#45;&#45;choicePlayer.py -->
<g id="edge38" class="edge">
<title>menus&#45;&#45;choicePlayer.py</title>
<path fill="none" stroke="black" d="M650.61,-790C611.49,-801.63 549.11,-820.17 507.64,-832.5"/>
</g>
<!-- choiceBarrier.py -->
<g id="node40" class="node">
<title>choiceBarrier.py</title>
<ellipse fill="none" stroke="black" cx="474.23" cy="-774.56" rx="60.26" ry="18"/>
<text text-anchor="middle" x="474.23" y="-770.28" font-family="Times,serif" font-size="12.00">choiceBarrier.py</text>
</g>
<!-- menus&#45;&#45;choiceBarrier.py -->
<g id="edge39" class="edge">
<title>menus&#45;&#45;choiceBarrier.py</title>
<path fill="none" stroke="black" d="M650.66,-778.47C618.93,-777.77 572.08,-776.73 534.63,-775.9"/>
</g>
<!-- waitingRoom.py -->
<g id="node41" class="node">
<title>waitingRoom.py</title>
<ellipse fill="none" stroke="black" cx="591.88" cy="-952.6" rx="60.74" ry="18"/>
<text text-anchor="middle" x="591.88" y="-948.33" font-family="Times,serif" font-size="12.00">waitingRoom.py</text>
</g>
<!-- menus&#45;&#45;waitingRoom.py -->
<g id="edge40" class="edge">
<title>menus&#45;&#45;waitingRoom.py</title>
<path fill="none" stroke="black" d="M666.82,-815.61C646.95,-851.94 617.19,-906.33 601.84,-934.4"/>
</g>
<!-- endGameMulti.py -->
<g id="node42" class="node">
<title>endGameMulti.py</title>
<ellipse fill="none" stroke="black" cx="502.04" cy="-908.58" rx="65.03" ry="18"/>
<text text-anchor="middle" x="502.04" y="-904.31" font-family="Times,serif" font-size="12.00">endGameMulti.py</text>
</g>
<!-- menus&#45;&#45;endGameMulti.py -->
<g id="edge41" class="edge">
<title>menus&#45;&#45;endGameMulti.py</title>
<path fill="none" stroke="black" d="M650.63,-815.32C634.17,-830.7 613.94,-848.2 594.01,-861.81 576.26,-873.93 554.94,-884.96 537.3,-893.27"/>
</g>
<!-- informationPlayer.py -->
<g id="node44" class="node">
<title>informationPlayer.py</title>
<ellipse fill="none" stroke="black" cx="1071.33" cy="-589.9" rx="73.62" ry="18"/>
<text text-anchor="middle" x="1071.33" y="-585.62" font-family="Times,serif" font-size="12.00">informationPlayer.py</text>
</g>
<!-- widgets&#45;&#45;informationPlayer.py -->
<g id="edge43" class="edge">
<title>widgets&#45;&#45;informationPlayer.py</title>
<path fill="none" stroke="black" d="M1002.72,-533.53C1018.48,-546.48 1036.39,-561.19 1049.95,-572.33"/>
</g>
<!-- displayInformation.py -->
<g id="node45" class="node">
<title>displayInformation.py</title>
<ellipse fill="none" stroke="black" cx="1152.86" cy="-469.49" rx="76.48" ry="18"/>
<text text-anchor="middle" x="1152.86" y="-465.21" font-family="Times,serif" font-size="12.00">displayInformation.py</text>
</g>
<!-- widgets&#45;&#45;displayInformation.py -->
<g id="edge44" class="edge">
<title>widgets&#45;&#45;displayInformation.py</title>
<path fill="none" stroke="black" d="M1002.69,-496.94C1028.04,-492.3 1062.44,-486.01 1091.92,-480.63"/>
</g>
<!-- menu.py -->
<g id="node46" class="node">
<title>menu.py</title>
<ellipse fill="none" stroke="black" cx="983.19" cy="-372.1" rx="36.41" ry="18"/>
<text text-anchor="middle" x="983.19" y="-367.82" font-family="Times,serif" font-size="12.00">menu.py</text>
</g>
<!-- widgets&#45;&#45;menu.py -->
<g id="edge45" class="edge">
<title>widgets&#45;&#45;menu.py</title>
<path fill="none" stroke="black" d="M970.94,-467.31C974.15,-442.38 978.27,-410.32 980.82,-390.49"/>
</g>
<!-- button.py -->
<g id="node47" class="node">
<title>button.py</title>
<ellipse fill="none" stroke="black" cx="1132.87" cy="-396.1" rx="38.8" ry="18"/>
<text text-anchor="middle" x="1132.87" y="-391.82" font-family="Times,serif" font-size="12.00">button.py</text>
</g>
<!-- widgets&#45;&#45;button.py -->
<g id="edge46" class="edge">
<title>widgets&#45;&#45;button.py</title>
<path fill="none" stroke="black" d="M1002.83,-480C1035.4,-458.99 1082.06,-428.88 1109.73,-411.03"/>
</g>
<!-- back.py -->
<g id="node48" class="node">
<title>back.py</title>
<ellipse fill="none" stroke="black" cx="1067.86" cy="-349" rx="36" ry="18"/>
<text text-anchor="middle" x="1067.86" y="-344.72" font-family="Times,serif" font-size="12.00">back.py</text>
</g>
<!-- widgets&#45;&#45;back.py -->
<g id="edge47" class="edge">
<title>widgets&#45;&#45;back.py</title>
<path fill="none" stroke="black" d="M990.09,-467.35C1010.97,-435.57 1040.41,-390.77 1056.42,-366.41"/>
</g>
<!-- input.py -->
<g id="node49" class="node">
<title>input.py</title>
<ellipse fill="none" stroke="black" cx="1176.85" cy="-545.86" rx="36" ry="18"/>
<text text-anchor="middle" x="1176.85" y="-541.58" font-family="Times,serif" font-size="12.00">input.py</text>
</g>
<!-- widgets&#45;&#45;input.py -->
<g id="edge48" class="edge">
<title>widgets&#45;&#45;input.py</title>
<path fill="none" stroke="black" d="M1002.47,-510.86C1041.98,-518.79 1104.74,-531.38 1143.21,-539.1"/>
</g>
</g>
</svg>
