<?xml version="1.0" encoding="UTF-8" standalone="no"?>
<!DOCTYPE svg PUBLIC "-//W3C//DTD SVG 1.1//EN"
 "http://www.w3.org/Graphics/SVG/1.1/DTD/svg11.dtd">
<!-- Generated by graphviz version 8.0.5 (20230430.1635)
 -->
<!-- Pages: 1 -->
<svg width="881pt" height="908pt"
 viewBox="0.00 0.00 881.47 908.00" xmlns="http://www.w3.org/2000/svg" xmlns:xlink="http://www.w3.org/1999/xlink">
<g id="graph0" class="graph" transform="scale(1 1) rotate(0) translate(4 904)">
<polygon fill="white" stroke="none" points="-4,4 -4,-904 877.47,-904 877.47,4 -4,4"/>
<!-- choicePlayer -->
<g id="node1" class="node">
<title>choicePlayer</title>
<path fill="#ccccff" stroke="#0000ff" stroke-width="2" d="M827.72,-900C827.72,-900 765.97,-900 765.97,-900 759.97,-900 753.97,-894 753.97,-888 753.97,-888 753.97,-876 753.97,-876 753.97,-870 759.97,-864 765.97,-864 765.97,-864 827.72,-864 827.72,-864 833.72,-864 839.72,-870 839.72,-876 839.72,-876 839.72,-888 839.72,-888 839.72,-894 833.72,-900 827.72,-900"/>
<text text-anchor="middle" x="796.85" y="-877.73" font-family="Arial" font-size="12.00">choicePlayer</text>
</g>
<!-- choiceHost -->
<g id="node2" class="node">
<title>choiceHost</title>
<path fill="#ccccff" stroke="#0000ff" stroke-width="2" d="M789.85,-828C789.85,-828 737.85,-828 737.85,-828 731.85,-828 725.85,-822 725.85,-816 725.85,-816 725.85,-804 725.85,-804 725.85,-798 731.85,-792 737.85,-792 737.85,-792 789.85,-792 789.85,-792 795.85,-792 801.85,-798 801.85,-804 801.85,-804 801.85,-816 801.85,-816 801.85,-822 795.85,-828 789.85,-828"/>
<text text-anchor="middle" x="763.85" y="-805.73" font-family="Arial" font-size="12.00">choiceHost</text>
</g>
<!-- choicePlayer&#45;&gt;choiceHost -->
<g id="edge1" class="edge">
<title>choicePlayer&#45;&gt;choiceHost</title>
<path fill="none" stroke="black" d="M788.69,-863.7C784.89,-855.64 780.3,-845.89 776.09,-836.98"/>
<polygon fill="black" stroke="black" points="771.91,-828.1 780.24,-835.23 774.04,-832.63 776.17,-837.15 776.17,-837.15 776.17,-837.15 774.04,-832.63 772.1,-839.07 771.91,-828.1 771.91,-828.1"/>
</g>
<!-- type -->
<g id="node3" class="node">
<title>type</title>
<path fill="#ccccff" stroke="#0000ff" stroke-width="2" d="M726.85,-756C726.85,-756 696.85,-756 696.85,-756 690.85,-756 684.85,-750 684.85,-744 684.85,-744 684.85,-732 684.85,-732 684.85,-726 690.85,-720 696.85,-720 696.85,-720 726.85,-720 726.85,-720 732.85,-720 738.85,-726 738.85,-732 738.85,-732 738.85,-744 738.85,-744 738.85,-750 732.85,-756 726.85,-756"/>
<text text-anchor="middle" x="711.85" y="-733.73" font-family="Arial" font-size="12.00">type</text>
</g>
<!-- choicePlayer&#45;&gt;type -->
<g id="edge39" class="edge">
<title>choicePlayer&#45;&gt;type</title>
<path fill="none" stroke="black" d="M747.35,-858.4C735.38,-850.52 723.99,-840.45 716.85,-828 706.17,-809.4 705.59,-784.86 707.3,-766.26"/>
<polygon fill="black" stroke="black" points="755.69,-863.51 744.81,-862.12 751.42,-860.9 747.16,-858.28 747.16,-858.28 747.16,-858.28 751.42,-860.9 749.51,-854.45 755.69,-863.51 755.69,-863.51"/>
<polygon fill="black" stroke="black" points="708.47,-756.35 711.77,-766.81 707.89,-761.31 707.3,-766.28 707.3,-766.28 707.3,-766.28 707.89,-761.31 702.83,-765.75 708.47,-756.35 708.47,-756.35"/>
</g>
<!-- choiceBot -->
<g id="node5" class="node">
<title>choiceBot</title>
<path fill="#ccccff" stroke="#0000ff" stroke-width="2" d="M861.47,-36C861.47,-36 816.22,-36 816.22,-36 810.22,-36 804.22,-30 804.22,-24 804.22,-24 804.22,-12 804.22,-12 804.22,-6 810.22,0 816.22,0 816.22,0 861.47,0 861.47,0 867.47,0 873.47,-6 873.47,-12 873.47,-12 873.47,-24 873.47,-24 873.47,-30 867.47,-36 861.47,-36"/>
<text text-anchor="middle" x="838.85" y="-13.72" font-family="Arial" font-size="12.00">choiceBot</text>
</g>
<!-- choicePlayer&#45;&gt;choiceBot -->
<g id="edge4" class="edge">
<title>choicePlayer&#45;&gt;choiceBot</title>
<path fill="none" stroke="black" d="M818.45,-855.79C839.34,-828.78 867.85,-783.71 867.85,-739 867.85,-739 867.85,-739 867.85,-161 867.85,-120.04 856.12,-73.74 847.58,-45.47"/>
<polygon fill="black" stroke="black" points="812.25,-863.58 814.96,-852.95 815.37,-859.67 818.48,-855.76 818.48,-855.76 818.48,-855.76 815.37,-859.67 822,-858.56 812.25,-863.58 812.25,-863.58"/>
<polygon fill="black" stroke="black" points="844.71,-36.26 851.98,-44.47 846.2,-41.03 847.68,-45.81 847.68,-45.81 847.68,-45.81 846.2,-41.03 843.38,-47.14 844.71,-36.26 844.71,-36.26"/>
</g>
<!-- sizeGrid -->
<g id="node6" class="node">
<title>sizeGrid</title>
<path fill="#ccccff" stroke="#0000ff" stroke-width="2" d="M827.97,-108C827.97,-108 791.72,-108 791.72,-108 785.72,-108 779.72,-102 779.72,-96 779.72,-96 779.72,-84 779.72,-84 779.72,-78 785.72,-72 791.72,-72 791.72,-72 827.97,-72 827.97,-72 833.97,-72 839.97,-78 839.97,-84 839.97,-84 839.97,-96 839.97,-96 839.97,-102 833.97,-108 827.97,-108"/>
<text text-anchor="middle" x="809.85" y="-85.72" font-family="Arial" font-size="12.00">sizeGrid</text>
</g>
<!-- choicePlayer&#45;&gt;sizeGrid -->
<g id="edge35" class="edge">
<title>choicePlayer&#45;&gt;sizeGrid</title>
<path fill="none" stroke="black" d="M806.78,-854.63C816.5,-826.43 829.85,-780.21 829.85,-739 829.85,-739 829.85,-739 829.85,-233 829.85,-192.64 821.83,-146.46 815.94,-118.01"/>
<polygon fill="black" stroke="black" points="803.52,-863.81 802.63,-852.88 805.2,-859.1 806.87,-854.39 806.87,-854.39 806.87,-854.39 805.2,-859.1 811.11,-855.89 803.52,-863.81 803.52,-863.81"/>
<polygon fill="black" stroke="black" points="813.89,-108.38 820.38,-117.22 814.93,-113.27 815.98,-118.16 815.98,-118.16 815.98,-118.16 814.93,-113.27 811.57,-119.1 813.89,-108.38 813.89,-108.38"/>
</g>
<!-- choiceHost&#45;&gt;type -->
<g id="edge37" class="edge">
<title>choiceHost&#45;&gt;type</title>
<path fill="none" stroke="black" d="M745.21,-783.92C740.4,-777.43 735.21,-770.45 730.39,-763.97"/>
<polygon fill="black" stroke="black" points="750.99,-791.7 741.42,-786.35 748.01,-787.68 745.03,-783.67 745.03,-783.67 745.03,-783.67 748.01,-787.68 748.64,-780.99 750.99,-791.7 750.99,-791.7"/>
<polygon fill="black" stroke="black" points="724.55,-756.1 734.13,-761.45 727.53,-760.12 730.51,-764.13 730.51,-764.13 730.51,-764.13 727.53,-760.12 726.9,-766.82 724.55,-756.1 724.55,-756.1"/>
</g>
<!-- choiceServer -->
<g id="node4" class="node">
<title>choiceServer</title>
<path fill="#ccccff" stroke="#0000ff" stroke-width="2" d="M702.1,-252C702.1,-252 639.6,-252 639.6,-252 633.6,-252 627.6,-246 627.6,-240 627.6,-240 627.6,-228 627.6,-228 627.6,-222 633.6,-216 639.6,-216 639.6,-216 702.1,-216 702.1,-216 708.1,-216 714.1,-222 714.1,-228 714.1,-228 714.1,-240 714.1,-240 714.1,-246 708.1,-252 702.1,-252"/>
<text text-anchor="middle" x="670.85" y="-229.72" font-family="Arial" font-size="12.00">choiceServer</text>
</g>
<!-- choiceHost&#45;&gt;choiceServer -->
<g id="edge14" class="edge">
<title>choiceHost&#45;&gt;choiceServer</title>
<path fill="none" stroke="black" d="M764.76,-781.83C765.64,-753.25 766.85,-706.97 766.85,-667 766.85,-667 766.85,-667 766.85,-377 766.85,-334.5 756.37,-322.71 731.85,-288 724.1,-277.04 713.64,-266.88 703.56,-258.44"/>
<polygon fill="black" stroke="black" points="764.45,-791.51 760.27,-781.38 764.61,-786.52 764.77,-781.52 764.77,-781.52 764.77,-781.52 764.61,-786.52 769.27,-781.66 764.45,-791.51 764.45,-791.51"/>
<polygon fill="black" stroke="black" points="695.98,-252.34 706.59,-255.1 699.87,-255.47 703.77,-258.61 703.77,-258.61 703.77,-258.61 699.87,-255.47 700.95,-262.11 695.98,-252.34 695.98,-252.34"/>
</g>
<!-- main -->
<g id="node26" class="node">
<title>main</title>
<path fill="#ffcccc" stroke="#ff0000" stroke-width="2" d="M616.85,-684C616.85,-684 586.85,-684 586.85,-684 580.85,-684 574.85,-678 574.85,-672 574.85,-672 574.85,-660 574.85,-660 574.85,-654 580.85,-648 586.85,-648 586.85,-648 616.85,-648 616.85,-648 622.85,-648 628.85,-654 628.85,-660 628.85,-660 628.85,-672 628.85,-672 628.85,-678 622.85,-684 616.85,-684"/>
<text text-anchor="middle" x="601.85" y="-661.73" font-family="Arial" font-size="12.00">main</text>
</g>
<!-- type&#45;&gt;main -->
<g id="edge64" class="edge">
<title>type&#45;&gt;main</title>
<path fill="none" stroke="black" d="M676.13,-714.27C663.68,-706.35 649.72,-697.47 637.29,-689.56"/>
<polygon fill="black" stroke="black" points="684.37,-719.52 673.52,-717.94 680.15,-716.83 675.93,-714.15 675.93,-714.15 675.93,-714.15 680.15,-716.83 678.35,-710.35 684.37,-719.52 684.37,-719.52"/>
<polygon fill="black" stroke="black" points="628.97,-684.26 639.82,-685.83 633.19,-686.94 637.41,-689.63 637.41,-689.63 637.41,-689.63 633.19,-686.94 634.99,-693.43 628.97,-684.26 628.97,-684.26"/>
</g>
<!-- sizeGrid&#45;&gt;choiceBot -->
<g id="edge5" class="edge">
<title>sizeGrid&#45;&gt;choiceBot</title>
<path fill="none" stroke="black" d="M817.01,-71.7C820.31,-63.73 824.3,-54.1 827.96,-45.26"/>
<polygon fill="black" stroke="black" points="831.76,-36.1 832.09,-47.07 829.85,-40.72 827.93,-45.34 827.93,-45.34 827.93,-45.34 829.85,-40.72 823.77,-43.62 831.76,-36.1 831.76,-36.1"/>
</g>
<!-- choiceBarrier -->
<g id="node18" class="node">
<title>choiceBarrier</title>
<path fill="#ccccff" stroke="#0000ff" stroke-width="2" d="M583.47,-180C583.47,-180 520.22,-180 520.22,-180 514.22,-180 508.22,-174 508.22,-168 508.22,-168 508.22,-156 508.22,-156 508.22,-150 514.22,-144 520.22,-144 520.22,-144 583.47,-144 583.47,-144 589.47,-144 595.47,-150 595.47,-156 595.47,-156 595.47,-168 595.47,-168 595.47,-174 589.47,-180 583.47,-180"/>
<text text-anchor="middle" x="551.85" y="-157.72" font-family="Arial" font-size="12.00">choiceBarrier</text>
</g>
<!-- discoveryServer -->
<g id="node7" class="node">
<title>discoveryServer</title>
<path fill="#ffccff" stroke="#ff00ff" stroke-width="2" d="M605.97,-396C605.97,-396 527.72,-396 527.72,-396 521.72,-396 515.72,-390 515.72,-384 515.72,-384 515.72,-372 515.72,-372 515.72,-366 521.72,-360 527.72,-360 527.72,-360 605.97,-360 605.97,-360 611.97,-360 617.97,-366 617.97,-372 617.97,-372 617.97,-384 617.97,-384 617.97,-390 611.97,-396 605.97,-396"/>
<text text-anchor="middle" x="566.85" y="-373.73" font-family="Arial" font-size="12.00">discoveryServer</text>
</g>
<!-- discoveryServer&#45;&gt;choiceServer -->
<g id="edge15" class="edge">
<title>discoveryServer&#45;&gt;choiceServer</title>
<path fill="none" stroke="black" d="M575.85,-305C582.2,-283.81 600.09,-268.05 618.65,-256.9"/>
<polygon fill="black" stroke="black" points="627.19,-252.1 620.68,-260.92 622.84,-254.55 618.48,-257 618.48,-257 618.48,-257 622.84,-254.55 616.27,-253.07 627.19,-252.1 627.19,-252.1"/>
</g>
<!-- multiplayerServer -->
<g id="node8" class="node">
<title>multiplayerServer</title>
<path fill="#ffccff" stroke="#ff00ff" stroke-width="2" d="M535.72,-324C535.72,-324 449.97,-324 449.97,-324 443.97,-324 437.97,-318 437.97,-312 437.97,-312 437.97,-300 437.97,-300 437.97,-294 443.97,-288 449.97,-288 449.97,-288 535.72,-288 535.72,-288 541.72,-288 547.72,-294 547.72,-300 547.72,-300 547.72,-312 547.72,-312 547.72,-318 541.72,-324 535.72,-324"/>
<text text-anchor="middle" x="492.85" y="-301.73" font-family="Arial" font-size="12.00">multiplayerServer</text>
</g>
<!-- discoveryServer&#45;&gt;multiplayerServer -->
<g id="edge6" class="edge">
<title>discoveryServer&#45;&gt;multiplayerServer</title>
<path fill="none" stroke="black" d="M548.55,-359.7C539.39,-351.03 528.15,-340.4 518.18,-330.96"/>
<polygon fill="black" stroke="black" points="511.18,-324.35 521.54,-327.95 514.82,-327.78 518.45,-331.22 518.45,-331.22 518.45,-331.22 514.82,-327.78 515.36,-334.49 511.18,-324.35 511.18,-324.35"/>
</g>
<!-- waitingRoom -->
<g id="node16" class="node">
<title>waitingRoom</title>
<path fill="#ccccff" stroke="#0000ff" stroke-width="2" d="M678.1,-324C678.1,-324 615.6,-324 615.6,-324 609.6,-324 603.6,-318 603.6,-312 603.6,-312 603.6,-300 603.6,-300 603.6,-294 609.6,-288 615.6,-288 615.6,-288 678.1,-288 678.1,-288 684.1,-288 690.1,-294 690.1,-300 690.1,-300 690.1,-312 690.1,-312 690.1,-318 684.1,-324 678.1,-324"/>
<text text-anchor="middle" x="646.85" y="-301.73" font-family="Arial" font-size="12.00">waitingRoom</text>
</g>
<!-- discoveryServer&#45;&gt;waitingRoom -->
<g id="edge57" class="edge">
<title>discoveryServer&#45;&gt;waitingRoom</title>
<path fill="none" stroke="black" d="M586.62,-359.7C596.62,-350.95 608.91,-340.19 619.77,-330.69"/>
<polygon fill="black" stroke="black" points="627.02,-324.35 622.46,-334.32 623.26,-327.64 619.49,-330.93 619.49,-330.93 619.49,-330.93 623.26,-327.64 616.53,-327.55 627.02,-324.35 627.02,-324.35"/>
</g>
<!-- selectServerName -->
<g id="node17" class="node">
<title>selectServerName</title>
<path fill="#ccccff" stroke="#0000ff" stroke-width="2" d="M597.35,-252C597.35,-252 506.35,-252 506.35,-252 500.35,-252 494.35,-246 494.35,-240 494.35,-240 494.35,-228 494.35,-228 494.35,-222 500.35,-216 506.35,-216 506.35,-216 597.35,-216 597.35,-216 603.35,-216 609.35,-222 609.35,-228 609.35,-228 609.35,-240 609.35,-240 609.35,-246 603.35,-252 597.35,-252"/>
<text text-anchor="middle" x="551.85" y="-229.72" font-family="Arial" font-size="12.00">selectServerName</text>
</g>
<!-- discoveryServer&#45;&gt;selectServerName -->
<g id="edge18" class="edge">
<title>discoveryServer&#45;&gt;selectServerName</title>
<path fill="none" stroke="black" d="M575.85,-305C580.25,-290.3 575.32,-274.08 568.81,-260.96"/>
<polygon fill="black" stroke="black" points="564.14,-252.43 572.89,-259.04 566.54,-256.81 568.94,-261.2 568.94,-261.2 568.94,-261.2 566.54,-256.81 564.99,-263.36 564.14,-252.43 564.14,-252.43"/>
<path fill="none" stroke="black" d="M567.5,-359.7C568.41,-345.33 570.6,-324.49 575.85,-307"/>
</g>
<!-- multiplayerServer&#45;&gt;selectServerName -->
<g id="edge19" class="edge">
<title>multiplayerServer&#45;&gt;selectServerName</title>
<path fill="none" stroke="black" d="M507.43,-287.7C514.57,-279.22 523.3,-268.86 531.13,-259.58"/>
<polygon fill="black" stroke="black" points="537.43,-252.1 534.42,-262.65 534.21,-255.93 530.98,-259.75 530.98,-259.75 530.98,-259.75 534.21,-255.93 527.54,-256.85 537.43,-252.1 537.43,-252.1"/>
</g>
<!-- barrier -->
<g id="node9" class="node">
<title>barrier</title>
<path fill="#ccccff" stroke="#0000ff" stroke-width="2" d="M327.85,-756C327.85,-756 297.85,-756 297.85,-756 291.85,-756 285.85,-750 285.85,-744 285.85,-744 285.85,-732 285.85,-732 285.85,-726 291.85,-720 297.85,-720 297.85,-720 327.85,-720 327.85,-720 333.85,-720 339.85,-726 339.85,-732 339.85,-732 339.85,-744 339.85,-744 339.85,-750 333.85,-756 327.85,-756"/>
<text text-anchor="middle" x="312.85" y="-733.73" font-family="Arial" font-size="12.00">barrier</text>
</g>
<!-- board -->
<g id="node10" class="node">
<title>board</title>
<path fill="#ccccff" stroke="#0000ff" stroke-width="2" d="M443.85,-612C443.85,-612 413.85,-612 413.85,-612 407.85,-612 401.85,-606 401.85,-600 401.85,-600 401.85,-588 401.85,-588 401.85,-582 407.85,-576 413.85,-576 413.85,-576 443.85,-576 443.85,-576 449.85,-576 455.85,-582 455.85,-588 455.85,-588 455.85,-600 455.85,-600 455.85,-606 449.85,-612 443.85,-612"/>
<text text-anchor="middle" x="428.85" y="-589.73" font-family="Arial" font-size="12.00">board</text>
</g>
<!-- barrier&#45;&gt;board -->
<g id="edge7" class="edge">
<title>barrier&#45;&gt;board</title>
<path fill="none" stroke="black" d="M321.57,-719.57C331.41,-700.84 348.55,-670.7 367.85,-648 376.75,-637.52 387.78,-627.3 398,-618.67"/>
<polygon fill="black" stroke="black" points="405.61,-612.41 400.75,-622.24 401.75,-615.58 397.89,-618.76 397.89,-618.76 397.89,-618.76 401.75,-615.58 395.03,-615.29 405.61,-612.41 405.61,-612.41"/>
</g>
<!-- horizontalBarrier -->
<g id="node11" class="node">
<title>horizontalBarrier</title>
<path fill="#ccccff" stroke="#0000ff" stroke-width="2" d="M469.1,-684C469.1,-684 388.6,-684 388.6,-684 382.6,-684 376.6,-678 376.6,-672 376.6,-672 376.6,-660 376.6,-660 376.6,-654 382.6,-648 388.6,-648 388.6,-648 469.1,-648 469.1,-648 475.1,-648 481.1,-654 481.1,-660 481.1,-660 481.1,-672 481.1,-672 481.1,-678 475.1,-684 469.1,-684"/>
<text text-anchor="middle" x="428.85" y="-661.73" font-family="Arial" font-size="12.00">horizontalBarrier</text>
</g>
<!-- barrier&#45;&gt;horizontalBarrier -->
<g id="edge65" class="edge">
<title>barrier&#45;&gt;horizontalBarrier</title>
<path fill="none" stroke="black" d="M340.34,-720.41C355.63,-711.18 374.87,-699.57 391.51,-689.53"/>
<polygon fill="black" stroke="black" points="399.93,-684.45 393.7,-693.47 395.65,-687.03 391.37,-689.61 391.37,-689.61 391.37,-689.61 395.65,-687.03 389.05,-685.76 399.93,-684.45 399.93,-684.45"/>
</g>
<!-- intersection -->
<g id="node12" class="node">
<title>intersection</title>
<path fill="#ccccff" stroke="#0000ff" stroke-width="2" d="M200.6,-684C200.6,-684 147.1,-684 147.1,-684 141.1,-684 135.1,-678 135.1,-672 135.1,-672 135.1,-660 135.1,-660 135.1,-654 141.1,-648 147.1,-648 147.1,-648 200.6,-648 200.6,-648 206.6,-648 212.6,-654 212.6,-660 212.6,-660 212.6,-672 212.6,-672 212.6,-678 206.6,-684 200.6,-684"/>
<text text-anchor="middle" x="173.85" y="-661.73" font-family="Arial" font-size="12.00">intersection</text>
</g>
<!-- barrier&#45;&gt;intersection -->
<g id="edge62" class="edge">
<title>barrier&#45;&gt;intersection</title>
<path fill="none" stroke="black" d="M285.38,-723.17C265.98,-713.4 239.58,-700.1 217.33,-688.9"/>
<polygon fill="black" stroke="black" points="208.4,-684.4 219.36,-684.88 212.87,-686.65 217.34,-688.9 217.34,-688.9 217.34,-688.9 212.87,-686.65 215.31,-692.92 208.4,-684.4 208.4,-684.4"/>
</g>
<!-- verticalBarrier -->
<g id="node13" class="node">
<title>verticalBarrier</title>
<path fill="#ccccff" stroke="#0000ff" stroke-width="2" d="M308.97,-684C308.97,-684 242.72,-684 242.72,-684 236.72,-684 230.72,-678 230.72,-672 230.72,-672 230.72,-660 230.72,-660 230.72,-654 236.72,-648 242.72,-648 242.72,-648 308.97,-648 308.97,-648 314.97,-648 320.97,-654 320.97,-660 320.97,-660 320.97,-672 320.97,-672 320.97,-678 314.97,-684 308.97,-684"/>
<text text-anchor="middle" x="275.85" y="-661.73" font-family="Arial" font-size="12.00">verticalBarrier</text>
</g>
<!-- barrier&#45;&gt;verticalBarrier -->
<g id="edge13" class="edge">
<title>barrier&#45;&gt;verticalBarrier</title>
<path fill="none" stroke="black" d="M303.7,-719.7C299.4,-711.56 294.18,-701.69 289.43,-692.7"/>
<polygon fill="black" stroke="black" points="284.89,-684.1 293.54,-690.84 287.22,-688.52 289.56,-692.95 289.56,-692.95 289.56,-692.95 287.22,-688.52 285.58,-695.05 284.89,-684.1 284.89,-684.1"/>
</g>
<!-- multiplayerClient -->
<g id="node20" class="node">
<title>multiplayerClient</title>
<path fill="#ffccff" stroke="#ff00ff" stroke-width="2" d="M459.85,-468C459.85,-468 377.85,-468 377.85,-468 371.85,-468 365.85,-462 365.85,-456 365.85,-456 365.85,-444 365.85,-444 365.85,-438 371.85,-432 377.85,-432 377.85,-432 459.85,-432 459.85,-432 465.85,-432 471.85,-438 471.85,-444 471.85,-444 471.85,-456 471.85,-456 471.85,-462 465.85,-468 459.85,-468"/>
<text text-anchor="middle" x="418.85" y="-445.73" font-family="Arial" font-size="12.00">multiplayerClient</text>
</g>
<!-- board&#45;&gt;multiplayerClient -->
<g id="edge23" class="edge">
<title>board&#45;&gt;multiplayerClient</title>
<path fill="none" stroke="black" d="M405.2,-575.67C390.75,-562.98 374.84,-544.3 373.85,-523"/>
</g>
<!-- localGame -->
<g id="node22" class="node">
<title>localGame</title>
<path fill="#ccffcc" stroke="#00ff00" stroke-width="2" d="M333.72,-540C333.72,-540 283.97,-540 283.97,-540 277.97,-540 271.97,-534 271.97,-528 271.97,-528 271.97,-516 271.97,-516 271.97,-510 277.97,-504 283.97,-504 283.97,-504 333.72,-504 333.72,-504 339.72,-504 345.72,-510 345.72,-516 345.72,-516 345.72,-528 345.72,-528 345.72,-534 339.72,-540 333.72,-540"/>
<text text-anchor="middle" x="308.85" y="-517.73" font-family="Arial" font-size="12.00">localGame</text>
</g>
<!-- board&#45;&gt;localGame -->
<g id="edge47" class="edge">
<title>board&#45;&gt;localGame</title>
<path fill="none" stroke="black" d="M401.62,-577.12C385.45,-567.69 364.71,-555.59 346.94,-545.22"/>
<polygon fill="black" stroke="black" points="338.49,-540.29 349.39,-541.44 342.81,-542.81 347.13,-545.33 347.13,-545.33 347.13,-545.33 342.81,-542.81 344.86,-549.22 338.49,-540.29 338.49,-540.29"/>
</g>
<!-- horizontalBarrier&#45;&gt;board -->
<g id="edge8" class="edge">
<title>horizontalBarrier&#45;&gt;board</title>
<path fill="none" stroke="black" d="M428.85,-647.7C428.85,-639.9 428.85,-630.51 428.85,-621.83"/>
<polygon fill="black" stroke="black" points="428.85,-612.1 433.35,-622.1 428.85,-617.1 428.85,-622.1 428.85,-622.1 428.85,-622.1 428.85,-617.1 424.35,-622.1 428.85,-612.1 428.85,-612.1"/>
</g>
<!-- intersection&#45;&gt;board -->
<g id="edge9" class="edge">
<title>intersection&#45;&gt;board</title>
<path fill="none" stroke="black" d="M213.01,-650.67C215.98,-649.73 218.95,-648.82 221.85,-648 294.46,-627.36 315.8,-634.55 387.85,-612 389.41,-611.51 391,-610.98 392.6,-610.43"/>
<polygon fill="black" stroke="black" points="401.75,-607.03 393.94,-614.73 397.06,-608.77 392.38,-610.51 392.38,-610.51 392.38,-610.51 397.06,-608.77 390.81,-606.29 401.75,-607.03 401.75,-607.03"/>
</g>
<!-- verticalBarrier&#45;&gt;board -->
<g id="edge10" class="edge">
<title>verticalBarrier&#45;&gt;board</title>
<path fill="none" stroke="black" d="M314.06,-647.52C338.13,-636.51 369,-622.38 392.67,-611.55"/>
<polygon fill="black" stroke="black" points="401.68,-607.43 394.46,-615.68 397.14,-609.51 392.59,-611.59 392.59,-611.59 392.59,-611.59 397.14,-609.51 390.72,-607.5 401.68,-607.43 401.68,-607.43"/>
</g>
<!-- tablePlayer -->
<g id="node14" class="node">
<title>tablePlayer</title>
<path fill="#ccccff" stroke="#0000ff" stroke-width="2" d="M339.22,-828C339.22,-828 286.47,-828 286.47,-828 280.47,-828 274.47,-822 274.47,-816 274.47,-816 274.47,-804 274.47,-804 274.47,-798 280.47,-792 286.47,-792 286.47,-792 339.22,-792 339.22,-792 345.22,-792 351.22,-798 351.22,-804 351.22,-804 351.22,-816 351.22,-816 351.22,-822 345.22,-828 339.22,-828"/>
<text text-anchor="middle" x="312.85" y="-805.73" font-family="Arial" font-size="12.00">tablePlayer</text>
</g>
<!-- tablePlayer&#45;&gt;barrier -->
<g id="edge32" class="edge">
<title>tablePlayer&#45;&gt;barrier</title>
<path fill="none" stroke="black" d="M312.85,-791.7C312.85,-783.9 312.85,-774.51 312.85,-765.83"/>
<polygon fill="black" stroke="black" points="312.85,-756.1 317.35,-766.1 312.85,-761.1 312.85,-766.1 312.85,-766.1 312.85,-766.1 312.85,-761.1 308.35,-766.1 312.85,-756.1 312.85,-756.1"/>
</g>
<!-- tablePlayer&#45;&gt;board -->
<g id="edge11" class="edge">
<title>tablePlayer&#45;&gt;board</title>
<path fill="none" stroke="black" d="M351.67,-794.41C394.43,-775.98 460.95,-739.78 489.85,-684 497.2,-669.79 496.48,-662.56 489.85,-648 484.28,-635.79 474.36,-625.31 464.12,-616.97"/>
<polygon fill="black" stroke="black" points="456.29,-611.01 466.97,-613.48 460.27,-614.04 464.25,-617.07 464.25,-617.07 464.25,-617.07 460.27,-614.04 461.52,-620.65 456.29,-611.01 456.29,-611.01"/>
</g>
<!-- player -->
<g id="node15" class="node">
<title>player</title>
<path fill="#ccffcc" stroke="#00ff00" stroke-width="2" d="M149.85,-900C149.85,-900 119.85,-900 119.85,-900 113.85,-900 107.85,-894 107.85,-888 107.85,-888 107.85,-876 107.85,-876 107.85,-870 113.85,-864 119.85,-864 119.85,-864 149.85,-864 149.85,-864 155.85,-864 161.85,-870 161.85,-876 161.85,-876 161.85,-888 161.85,-888 161.85,-894 155.85,-900 149.85,-900"/>
<text text-anchor="middle" x="134.85" y="-877.73" font-family="Arial" font-size="12.00">player</text>
</g>
<!-- player&#45;&gt;choiceServer -->
<g id="edge16" class="edge">
<title>player&#45;&gt;choiceServer</title>
<path fill="none" stroke="black" d="M717.85,-377C706.23,-338.26 712.65,-326.02 698.85,-288 695.51,-278.8 690.85,-269.22 686.28,-260.76"/>
<polygon fill="black" stroke="black" points="681.44,-252.11 690.25,-258.64 683.88,-256.47 686.32,-260.83 686.32,-260.83 686.32,-260.83 683.88,-256.47 682.4,-263.03 681.44,-252.11 681.44,-252.11"/>
</g>
<!-- player&#45;&gt;board -->
<g id="edge12" class="edge">
<title>player&#45;&gt;board</title>
<path fill="none" stroke="black" d="M162.17,-879.35C274.11,-871.94 690.21,-837.64 656.85,-739"/>
<path fill="none" stroke="black" d="M656.85,-737C660.74,-690.36 603.7,-711.52 565.85,-684 556.68,-677.34 554.1,-675.71 546.85,-667"/>
<path fill="none" stroke="black" d="M546.85,-665C535.16,-650.97 495.12,-628.62 464.9,-612.97"/>
<polygon fill="black" stroke="black" points="456.28,-608.54 467.23,-609.1 460.72,-610.82 465.17,-613.1 465.17,-613.1 465.17,-613.1 460.72,-610.82 463.12,-617.11 456.28,-608.54 456.28,-608.54"/>
</g>
<!-- player&#45;&gt;tablePlayer -->
<g id="edge43" class="edge">
<title>player&#45;&gt;tablePlayer</title>
<path fill="none" stroke="black" d="M162.27,-870.22C189.63,-859.45 232.23,-842.7 265.15,-829.76"/>
<polygon fill="black" stroke="black" points="274.16,-826.21 266.5,-834.06 269.5,-828.04 264.85,-829.87 264.85,-829.87 264.85,-829.87 269.5,-828.04 263.2,-825.69 274.16,-826.21 274.16,-826.21"/>
</g>
<!-- player&#45;&gt;waitingRoom -->
<g id="edge58" class="edge">
<title>player&#45;&gt;waitingRoom</title>
<path fill="none" stroke="black" d="M717.85,-377C713.39,-357.91 698.98,-342.01 684.3,-330.21"/>
<polygon fill="black" stroke="black" points="676.65,-324.42 687.34,-326.87 680.63,-327.44 684.62,-330.46 684.62,-330.46 684.62,-330.46 680.63,-327.44 681.91,-334.04 676.65,-324.42 676.65,-324.42"/>
<path fill="none" stroke="black" d="M656.85,-737C661.72,-678.6 687.04,-669.41 698.85,-612 719.77,-510.23 741.43,-480.19 717.85,-379"/>
</g>
<!-- bot -->
<g id="node19" class="node">
<title>bot</title>
<path fill="#ccffcc" stroke="#00ff00" stroke-width="2" d="M176.85,-828C176.85,-828 146.85,-828 146.85,-828 140.85,-828 134.85,-822 134.85,-816 134.85,-816 134.85,-804 134.85,-804 134.85,-798 140.85,-792 146.85,-792 146.85,-792 176.85,-792 176.85,-792 182.85,-792 188.85,-798 188.85,-804 188.85,-804 188.85,-816 188.85,-816 188.85,-822 182.85,-828 176.85,-828"/>
<text text-anchor="middle" x="161.85" y="-805.73" font-family="Arial" font-size="12.00">bot</text>
</g>
<!-- player&#45;&gt;bot -->
<g id="edge49" class="edge">
<title>player&#45;&gt;bot</title>
<path fill="none" stroke="black" d="M141.52,-863.7C144.59,-855.73 148.31,-846.1 151.71,-837.26"/>
<polygon fill="black" stroke="black" points="155.25,-828.1 155.85,-839.05 153.45,-832.77 151.65,-837.43 151.65,-837.43 151.65,-837.43 153.45,-832.77 147.45,-835.81 155.25,-828.1 155.25,-828.1"/>
</g>
<!-- player&#45;&gt;multiplayerClient -->
<g id="edge27" class="edge">
<title>player&#45;&gt;multiplayerClient</title>
<path fill="none" stroke="black" d="M546.85,-665C529.63,-644.34 485.81,-592.84 464.85,-576 428.36,-546.68 376.04,-569.75 373.85,-523"/>
</g>
<!-- endGameMulti -->
<g id="node21" class="node">
<title>endGameMulti</title>
<path fill="#ffccff" stroke="#ff00ff" stroke-width="2" d="M580.85,-540C580.85,-540 510.85,-540 510.85,-540 504.85,-540 498.85,-534 498.85,-528 498.85,-528 498.85,-516 498.85,-516 498.85,-510 504.85,-504 510.85,-504 510.85,-504 580.85,-504 580.85,-504 586.85,-504 592.85,-510 592.85,-516 592.85,-516 592.85,-528 592.85,-528 592.85,-534 586.85,-540 580.85,-540"/>
<text text-anchor="middle" x="545.85" y="-517.73" font-family="Arial" font-size="12.00">endGameMulti</text>
</g>
<!-- player&#45;&gt;endGameMulti -->
<g id="edge61" class="edge">
<title>player&#45;&gt;endGameMulti</title>
<path fill="none" stroke="black" d="M607.85,-593C605.29,-574.55 592.57,-558.57 579.31,-546.56"/>
<polygon fill="black" stroke="black" points="571.94,-540.31 582.48,-543.35 575.75,-543.54 579.57,-546.78 579.57,-546.78 579.57,-546.78 575.75,-543.54 576.65,-550.21 571.94,-540.31 571.94,-540.31"/>
<path fill="none" stroke="black" d="M546.85,-665C520.43,-633.29 613.51,-635.88 607.85,-595"/>
</g>
<!-- player&#45;&gt;localGame -->
<g id="edge44" class="edge">
<title>player&#45;&gt;localGame</title>
<path fill="none" stroke="black" d="M51.85,-665C68.72,-573.5 192.18,-540.29 261.66,-528.77"/>
<polygon fill="black" stroke="black" points="271.5,-527.22 262.32,-533.22 266.56,-528 261.62,-528.77 261.62,-528.77 261.62,-528.77 266.56,-528 260.92,-524.33 271.5,-527.22 271.5,-527.22"/>
<path fill="none" stroke="black" d="M107.35,-877.39C78.94,-872.03 35.98,-859.01 15.85,-828 -10.29,-787.74 1.74,-765.88 15.85,-720 24.21,-692.78 39.03,-692.43 51.85,-667"/>
</g>
<!-- game -->
<g id="node24" class="node">
<title>game</title>
<path fill="#ccffcc" stroke="#00ff00" stroke-width="2" d="M66.85,-756C66.85,-756 36.85,-756 36.85,-756 30.85,-756 24.85,-750 24.85,-744 24.85,-744 24.85,-732 24.85,-732 24.85,-726 30.85,-720 36.85,-720 36.85,-720 66.85,-720 66.85,-720 72.85,-720 78.85,-726 78.85,-732 78.85,-732 78.85,-744 78.85,-744 78.85,-750 72.85,-756 66.85,-756"/>
<text text-anchor="middle" x="51.85" y="-733.73" font-family="Arial" font-size="12.00">game</text>
</g>
<!-- player&#45;&gt;game -->
<g id="edge30" class="edge">
<title>player&#45;&gt;game</title>
<path fill="none" stroke="black" d="M126.39,-863.63C117.38,-845.46 102.43,-816.26 87.85,-792 82.34,-782.85 75.91,-773.11 70.01,-764.51"/>
<polygon fill="black" stroke="black" points="64.34,-756.35 73.74,-762 67.2,-760.46 70.05,-764.56 70.05,-764.56 70.05,-764.56 67.2,-760.46 66.35,-767.13 64.34,-756.35 64.34,-756.35"/>
</g>
<!-- cell -->
<g id="node25" class="node">
<title>cell</title>
<path fill="#ccffcc" stroke="#00ff00" stroke-width="2" d="M66.85,-828C66.85,-828 36.85,-828 36.85,-828 30.85,-828 24.85,-822 24.85,-816 24.85,-816 24.85,-804 24.85,-804 24.85,-798 30.85,-792 36.85,-792 36.85,-792 66.85,-792 66.85,-792 72.85,-792 78.85,-798 78.85,-804 78.85,-804 78.85,-816 78.85,-816 78.85,-822 72.85,-828 66.85,-828"/>
<text text-anchor="middle" x="51.85" y="-805.73" font-family="Arial" font-size="12.00">cell</text>
</g>
<!-- player&#45;&gt;cell -->
<g id="edge31" class="edge">
<title>player&#45;&gt;cell</title>
<path fill="none" stroke="black" d="M114.33,-863.7C103.95,-854.95 91.2,-844.19 79.93,-834.69"/>
<polygon fill="black" stroke="black" points="72.41,-828.35 82.96,-831.35 76.24,-831.57 80.06,-834.79 80.06,-834.79 80.06,-834.79 76.24,-831.57 77.16,-838.23 72.41,-828.35 72.41,-828.35"/>
</g>
<!-- endGame -->
<g id="node28" class="node">
<title>endGame</title>
<path fill="#ccccff" stroke="#0000ff" stroke-width="2" d="M568.1,-612C568.1,-612 523.6,-612 523.6,-612 517.6,-612 511.6,-606 511.6,-600 511.6,-600 511.6,-588 511.6,-588 511.6,-582 517.6,-576 523.6,-576 523.6,-576 568.1,-576 568.1,-576 574.1,-576 580.1,-582 580.1,-588 580.1,-588 580.1,-600 580.1,-600 580.1,-606 574.1,-612 568.1,-612"/>
<text text-anchor="middle" x="545.85" y="-589.73" font-family="Arial" font-size="12.00">endGame</text>
</g>
<!-- player&#45;&gt;endGame -->
<g id="edge40" class="edge">
<title>player&#45;&gt;endGame</title>
<path fill="none" stroke="black" d="M546.85,-665C537.14,-653.35 536.66,-636.44 538.71,-622.15"/>
<polygon fill="black" stroke="black" points="540.56,-612.33 543.13,-622.99 539.63,-617.24 538.71,-622.16 538.71,-622.16 538.71,-622.16 539.63,-617.24 534.29,-621.33 540.56,-612.33 540.56,-612.33"/>
</g>
<!-- waitingRoom&#45;&gt;choiceServer -->
<g id="edge17" class="edge">
<title>waitingRoom&#45;&gt;choiceServer</title>
<path fill="none" stroke="black" d="M652.78,-287.7C655.48,-279.81 658.74,-270.3 661.74,-261.55"/>
<polygon fill="black" stroke="black" points="664.98,-252.1 665.99,-263.02 663.36,-256.83 661.74,-261.56 661.74,-261.56 661.74,-261.56 663.36,-256.83 657.48,-260.1 664.98,-252.1 664.98,-252.1"/>
</g>
<!-- waitingRoom&#45;&gt;selectServerName -->
<g id="edge21" class="edge">
<title>waitingRoom&#45;&gt;selectServerName</title>
<path fill="none" stroke="black" d="M623.36,-287.7C611.26,-278.78 596.33,-267.78 583.25,-258.14"/>
<polygon fill="black" stroke="black" points="575.39,-252.35 586.11,-254.66 579.41,-255.31 583.44,-258.28 583.44,-258.28 583.44,-258.28 579.41,-255.31 580.77,-261.9 575.39,-252.35 575.39,-252.35"/>
</g>
<!-- selectServerName&#45;&gt;choiceBarrier -->
<g id="edge55" class="edge">
<title>selectServerName&#45;&gt;choiceBarrier</title>
<path fill="none" stroke="black" d="M551.85,-205.95C551.85,-200.65 551.85,-195.1 551.85,-189.81"/>
<polygon fill="black" stroke="black" points="551.85,-215.7 547.35,-205.7 551.85,-210.7 551.85,-205.7 551.85,-205.7 551.85,-205.7 551.85,-210.7 556.35,-205.7 551.85,-215.7 551.85,-215.7"/>
<polygon fill="black" stroke="black" points="551.85,-180.1 556.35,-190.1 551.85,-185.1 551.85,-190.1 551.85,-190.1 551.85,-190.1 551.85,-185.1 547.35,-190.1 551.85,-180.1 551.85,-180.1"/>
</g>
<!-- choiceBarrier&#45;&gt;sizeGrid -->
<g id="edge36" class="edge">
<title>choiceBarrier&#45;&gt;sizeGrid</title>
<path fill="none" stroke="black" d="M605.42,-146.46C654.35,-133.19 725.61,-113.85 769.77,-101.87"/>
<polygon fill="black" stroke="black" points="595.9,-149.05 604.38,-142.08 600.73,-147.74 605.55,-146.43 605.55,-146.43 605.55,-146.43 600.73,-147.74 606.73,-150.77 595.9,-149.05 595.9,-149.05"/>
<polygon fill="black" stroke="black" points="779.31,-99.29 770.84,-106.25 774.48,-100.59 769.66,-101.9 769.66,-101.9 769.66,-101.9 774.48,-100.59 768.48,-97.56 779.31,-99.29 779.31,-99.29"/>
</g>
<!-- bot&#45;&gt;multiplayerClient -->
<g id="edge22" class="edge">
<title>bot&#45;&gt;multiplayerClient</title>
<path fill="none" stroke="black" d="M373.85,-593C386.96,-564.79 375.3,-554.08 373.85,-523"/>
<path fill="none" stroke="black" d="M373.85,-521C373.05,-504.15 382.35,-488.11 392.69,-475.64"/>
<polygon fill="black" stroke="black" points="399.18,-468.37 395.88,-478.82 395.85,-472.1 392.52,-475.83 392.52,-475.83 392.52,-475.83 395.85,-472.1 389.17,-472.83 399.18,-468.37 399.18,-468.37"/>
</g>
<!-- bot&#45;&gt;localGame -->
<g id="edge45" class="edge">
<title>bot&#45;&gt;localGame</title>
<path fill="none" stroke="black" d="M373.85,-593C382.39,-574.93 368.48,-558.36 351.36,-545.88"/>
<polygon fill="black" stroke="black" points="343.34,-540.44 354.14,-542.33 347.48,-543.25 351.62,-546.05 351.62,-546.05 351.62,-546.05 347.48,-543.25 349.09,-549.78 343.34,-540.44 343.34,-540.44"/>
<path fill="none" stroke="black" d="M149.57,-791.61C128.61,-759.58 91.35,-690.64 125.85,-648 196.73,-560.37 325.66,-696.89 373.85,-595"/>
</g>
<!-- bot&#45;&gt;game -->
<g id="edge28" class="edge">
<title>bot&#45;&gt;game</title>
<path fill="none" stroke="black" d="M134.37,-791.52C120.09,-782.43 102.47,-771.22 87.18,-761.49"/>
<polygon fill="black" stroke="black" points="78.97,-756.26 89.82,-757.83 83.19,-758.94 87.41,-761.63 87.41,-761.63 87.41,-761.63 83.19,-758.94 84.99,-765.43 78.97,-756.26 78.97,-756.26"/>
</g>
<!-- multiplayerClient&#45;&gt;discoveryServer -->
<g id="edge56" class="edge">
<title>multiplayerClient&#45;&gt;discoveryServer</title>
<path fill="none" stroke="black" d="M455.81,-431.52C475.66,-422.13 500.31,-410.47 521.33,-400.53"/>
<polygon fill="black" stroke="black" points="530.1,-396.38 522.98,-404.73 525.58,-398.52 521.06,-400.66 521.06,-400.66 521.06,-400.66 525.58,-398.52 519.13,-396.59 530.1,-396.38 530.1,-396.38"/>
</g>
<!-- threadClient -->
<g id="node23" class="node">
<title>threadClient</title>
<path fill="#ffccff" stroke="#ff00ff" stroke-width="2" d="M447.47,-396C447.47,-396 390.22,-396 390.22,-396 384.22,-396 378.22,-390 378.22,-384 378.22,-384 378.22,-372 378.22,-372 378.22,-366 384.22,-360 390.22,-360 390.22,-360 447.47,-360 447.47,-360 453.47,-360 459.47,-366 459.47,-372 459.47,-372 459.47,-384 459.47,-384 459.47,-390 453.47,-396 447.47,-396"/>
<text text-anchor="middle" x="418.85" y="-373.73" font-family="Arial" font-size="12.00">threadClient</text>
</g>
<!-- multiplayerClient&#45;&gt;threadClient -->
<g id="edge33" class="edge">
<title>multiplayerClient&#45;&gt;threadClient</title>
<path fill="none" stroke="black" d="M418.85,-421.95C418.85,-416.65 418.85,-411.1 418.85,-405.81"/>
<polygon fill="black" stroke="black" points="418.85,-431.7 414.35,-421.7 418.85,-426.7 418.85,-421.7 418.85,-421.7 418.85,-421.7 418.85,-426.7 423.35,-421.7 418.85,-431.7 418.85,-431.7"/>
<polygon fill="black" stroke="black" points="418.85,-396.1 423.35,-406.1 418.85,-401.1 418.85,-406.1 418.85,-406.1 418.85,-406.1 418.85,-401.1 414.35,-406.1 418.85,-396.1 418.85,-396.1"/>
</g>
<!-- endGameMulti&#45;&gt;multiplayerClient -->
<g id="edge24" class="edge">
<title>endGameMulti&#45;&gt;multiplayerClient</title>
<path fill="none" stroke="black" d="M514.13,-503.52C497.33,-494.26 476.54,-482.8 458.67,-472.95"/>
<polygon fill="black" stroke="black" points="450.16,-468.26 461.09,-469.15 454.54,-470.67 458.92,-473.09 458.92,-473.09 458.92,-473.09 454.54,-470.67 456.75,-477.03 450.16,-468.26 450.16,-468.26"/>
</g>
<!-- localGame&#45;&gt;choiceBarrier -->
<g id="edge53" class="edge">
<title>localGame&#45;&gt;choiceBarrier</title>
<path fill="none" stroke="black" d="M310.87,-503.54C313.79,-476.77 318.85,-423.98 318.85,-379 318.85,-379 318.85,-379 318.85,-305 318.85,-221.41 429.54,-185.59 498.33,-171.4"/>
<polygon fill="black" stroke="black" points="507.75,-169.54 498.81,-175.89 502.84,-170.51 497.94,-171.48 497.94,-171.48 497.94,-171.48 502.84,-170.51 497.06,-167.06 507.75,-169.54 507.75,-169.54"/>
</g>
<!-- localGame&#45;&gt;multiplayerClient -->
<g id="edge25" class="edge">
<title>localGame&#45;&gt;multiplayerClient</title>
<path fill="none" stroke="black" d="M336.32,-503.52C350.6,-494.43 368.22,-483.22 383.51,-473.49"/>
<polygon fill="black" stroke="black" points="391.72,-468.26 385.7,-477.43 387.5,-470.94 383.28,-473.63 383.28,-473.63 383.28,-473.63 387.5,-470.94 380.87,-469.83 391.72,-468.26 391.72,-468.26"/>
</g>
<!-- game&#45;&gt;localGame -->
<g id="edge46" class="edge">
<title>game&#45;&gt;localGame</title>
<path fill="none" stroke="black" d="M50.1,-719.58C49.09,-705.32 48.58,-684.69 51.85,-667"/>
</g>
<!-- cell&#45;&gt;game -->
<g id="edge29" class="edge">
<title>cell&#45;&gt;game</title>
<path fill="none" stroke="black" d="M51.85,-791.7C51.85,-783.9 51.85,-774.51 51.85,-765.83"/>
<polygon fill="black" stroke="black" points="51.85,-756.1 56.35,-766.1 51.85,-761.1 51.85,-766.1 51.85,-766.1 51.85,-766.1 51.85,-761.1 47.35,-766.1 51.85,-756.1 51.85,-756.1"/>
</g>
<!-- main&#45;&gt;endGameMulti -->
<g id="edge59" class="edge">
<title>main&#45;&gt;endGameMulti</title>
<path fill="none" stroke="black" d="M605.47,-647.68C607.93,-633.48 610.32,-612.88 607.85,-595"/>
</g>
<!-- rules -->
<g id="node27" class="node">
<title>rules</title>
<path fill="#ccccff" stroke="#0000ff" stroke-width="2" d="M677.85,-612C677.85,-612 647.85,-612 647.85,-612 641.85,-612 635.85,-606 635.85,-600 635.85,-600 635.85,-588 635.85,-588 635.85,-582 641.85,-576 647.85,-576 647.85,-576 677.85,-576 677.85,-576 683.85,-576 689.85,-582 689.85,-588 689.85,-588 689.85,-600 689.85,-600 689.85,-606 683.85,-612 677.85,-612"/>
<text text-anchor="middle" x="662.85" y="-589.73" font-family="Arial" font-size="12.00">rules</text>
</g>
<!-- main&#45;&gt;rules -->
<g id="edge34" class="edge">
<title>main&#45;&gt;rules</title>
<path fill="none" stroke="black" d="M623.46,-640.2C629.28,-633.52 635.58,-626.29 641.39,-619.62"/>
<polygon fill="black" stroke="black" points="616.92,-647.7 620.1,-637.2 620.21,-643.93 623.49,-640.16 623.49,-640.16 623.49,-640.16 620.21,-643.93 626.89,-643.11 616.92,-647.7 616.92,-647.7"/>
<polygon fill="black" stroke="black" points="647.94,-612.1 644.76,-622.6 644.66,-615.87 641.37,-619.64 641.37,-619.64 641.37,-619.64 644.66,-615.87 637.98,-616.69 647.94,-612.1 647.94,-612.1"/>
</g>
<!-- main&#45;&gt;endGame -->
<g id="edge41" class="edge">
<title>main&#45;&gt;endGame</title>
<path fill="none" stroke="black" d="M588,-647.7C581.29,-639.3 573.1,-629.07 565.73,-619.86"/>
<polygon fill="black" stroke="black" points="559.53,-612.1 569.29,-617.1 562.65,-616.01 565.78,-619.91 565.78,-619.91 565.78,-619.91 562.65,-616.01 562.26,-622.72 559.53,-612.1 559.53,-612.1"/>
</g>
<!-- endGame&#45;&gt;endGameMulti -->
<g id="edge60" class="edge">
<title>endGame&#45;&gt;endGameMulti</title>
<path fill="none" stroke="black" d="M545.85,-575.7C545.85,-567.9 545.85,-558.51 545.85,-549.83"/>
<polygon fill="black" stroke="black" points="545.85,-540.1 550.35,-550.1 545.85,-545.1 545.85,-550.1 545.85,-550.1 545.85,-550.1 545.85,-545.1 541.35,-550.1 545.85,-540.1 545.85,-540.1"/>
</g>
<!-- endGame&#45;&gt;localGame -->
<g id="edge48" class="edge">
<title>endGame&#45;&gt;localGame</title>
<path fill="none" stroke="black" d="M502.23,-581.16C464.43,-570.76 408.35,-554.99 359.85,-540 358.45,-539.57 357.04,-539.13 355.61,-538.68"/>
<polygon fill="black" stroke="black" points="511.43,-583.68 500.6,-585.38 506.61,-582.36 501.79,-581.04 501.79,-581.04 501.79,-581.04 506.61,-582.36 502.98,-576.7 511.43,-583.68 511.43,-583.68"/>
<polygon fill="black" stroke="black" points="346.11,-535.63 357,-534.4 350.87,-537.16 355.63,-538.68 355.63,-538.68 355.63,-538.68 350.87,-537.16 354.26,-542.97 346.11,-535.63 346.11,-535.63"/>
</g>
</g>
</svg>
